<?xml version="1.0" standalone="no"?>
<!DOCTYPE svg PUBLIC "-//W3C//DTD SVG 1.1//EN" "http://www.w3.org/Graphics/SVG/1.1/DTD/svg11.dtd" >
<svg xmlns="http://www.w3.org/2000/svg" xmlns:xlink="http://www.w3.org/1999/xlink" version="1.1">
<metadata></metadata>
<defs>
<font id="cabin_condensedmedium" horiz-adv-x="1101" >
<font-face units-per-em="2048" ascent="1638" descent="-410" />
<missing-glyph horiz-adv-x="397" />
<glyph horiz-adv-x="0" />
<glyph horiz-adv-x="682" />
<glyph unicode=" "  horiz-adv-x="397" />
<glyph unicode="&#x09;" horiz-adv-x="397" />
<glyph unicode="&#xa0;" horiz-adv-x="397" />
<glyph unicode="!" horiz-adv-x="444" d="M113 1536h219l-41 -1126h-139zM121 0v203h203v-203h-203z" />
<glyph unicode="&#x22;" horiz-adv-x="698" d="M63 1536h207l-37 -614h-135zM428 1536h205l-35 -614h-135z" />
<glyph unicode="#" horiz-adv-x="1255" d="M57 438l74 183h199l73 239h-215l56 182h223l129 392h160l-127 -392h207l127 392h161l-127 -392h195l-55 -182h-203l-74 -239h221l-75 -183h-209l-148 -461h-164l148 461h-205l-152 -461h-159l149 461h-209zM489 621h205l78 239h-207z" />
<glyph unicode="$" horiz-adv-x="919" d="M66 973q0 49 16 102t53 98.5t99.5 78t154.5 42.5l-29 238h181l-29 -238q90 -6 168 -29.5t115 -47.5l-19 -209q-74 41 -154.5 71.5t-146.5 30.5q-35 0 -71.5 -5t-65.5 -17.5t-47.5 -35t-18.5 -55.5q0 -53 43 -83.5t107.5 -54t139.5 -47.5t139.5 -63.5t107.5 -102 t43 -165.5q0 -43 -12.5 -93t-49 -96t-103 -81t-175.5 -45l29 -232h-181l29 230q-104 6 -185 28.5t-124 51.5l29 235q47 -47 130 -85t199 -38q86 0 134.5 26t48.5 97q0 57 -41 93t-102.5 61.5t-134.5 50.5t-134.5 59.5t-102 89t-40.5 140.5z" />
<glyph unicode="%" horiz-adv-x="1482" d="M61 1055q0 92 21.5 164.5t58.5 122t86 76t105 26.5q115 0 188.5 -96.5t73.5 -274.5q0 -186 -73.5 -287.5t-196.5 -101.5q-117 0 -190 97.5t-73 273.5zM193 1055q0 -121 38.5 -185.5t94.5 -64.5q59 0 99 69.5t40 198.5q0 119 -41 184.5t-94 65.5t-95 -69.5t-42 -198.5z M266 -25l744 1459h170l-744 -1459h-170zM891 346q0 92 21.5 165t58.5 122t86 75.5t104 26.5q115 0 188.5 -96t73.5 -274q0 -186 -73.5 -288t-196.5 -102q-117 0 -189.5 97.5t-72.5 273.5zM1022 346q0 -121 39 -185.5t94 -64.5q59 0 99 70t40 199q0 119 -41 184t-94 65 t-95 -69.5t-42 -198.5z" />
<glyph unicode="&#x26;" horiz-adv-x="1105" d="M57 336q0 127 61.5 226.5t155.5 187.5q-59 98 -96 184t-37 166t30 143.5t79 106.5t112.5 66.5t133.5 23.5q135 0 204.5 -77t69.5 -194q0 -72 -22.5 -133t-59.5 -114.5t-83 -98.5t-95 -84l268 -374q8 31 13.5 77.5t8.5 97t5 98.5t2 81h192q0 -45 -3 -104.5t-13 -126 t-27.5 -136t-48.5 -133.5l178 -219h-231l-59 86q-66 -72 -144 -102.5t-184 -30.5q-109 0 -185.5 30.5t-127 83t-74 122t-23.5 147.5zM268 352q0 -47 10.5 -91t36 -77.5t68.5 -53t109 -19.5q70 0 116.5 28.5t79.5 75.5l-317 418q-47 -51 -75 -123t-28 -158zM340 1094 q0 -47 19.5 -107.5t64.5 -136.5q37 39 68.5 72.5t53 66.5t34 69t12.5 79q0 72 -30 106.5t-79 34.5q-59 0 -101 -46t-42 -138z" />
<glyph unicode="'" horiz-adv-x="346" d="M70 1536h209l-37 -614h-140z" />
<glyph unicode="(" horiz-adv-x="501" d="M80 629q0 162 13 293t37 239.5t57.5 199.5t76.5 175h187q-43 -86 -80 -182.5t-64.5 -208t-44 -240.5t-16.5 -276t16.5 -276.5t44 -241t64.5 -208t80 -182.5h-187q-43 82 -76.5 174.5t-57.5 201t-37 239.5t-13 293z" />
<glyph unicode=")" horiz-adv-x="501" d="M51 -279q43 86 80 182.5t64.5 208t43 240.5t15.5 277q0 147 -15.5 276t-43 240.5t-64.5 208t-80 182.5h185q43 -84 77.5 -175t58 -199.5t37 -239.5t13.5 -293t-13.5 -293t-37 -239.5t-58 -201t-77.5 -174.5h-185z" />
<glyph unicode="*" horiz-adv-x="790" d="M63 1292l72 113l240 -191l-51 320h145l-55 -320l243 191l72 -115l-280 -119l210 -219l-104 -88l-156 275l-157 -281l-105 88l209 221z" />
<glyph unicode="+" horiz-adv-x="794" d="M72 481v183h245v262h160v-262h246v-183h-246v-272h-160v272h-245z" />
<glyph unicode="," horiz-adv-x="415" d="M102 -197l60 179l-58 18v207h207v-207l-164 -223z" />
<glyph unicode="-" horiz-adv-x="718" d="M86 481v183h547v-183h-547z" />
<glyph unicode="." horiz-adv-x="415" d="M106 0v207h205v-207h-205z" />
<glyph unicode="/" horiz-adv-x="970" d="M37 -174l647 1608h223l-649 -1608h-221z" />
<glyph unicode="0" horiz-adv-x="1241" d="M102 692q0 174 41 315.5t112 243t168 156.5t208 55t204 -53t160.5 -149.5t105.5 -230.5t38 -298q0 -174 -38 -314.5t-107.5 -239.5t-167 -152.5t-216.5 -53.5q-115 0 -208 51.5t-159.5 145.5t-103.5 227t-37 297zM317 692q0 -135 22.5 -233.5t62.5 -163t93.5 -96 t116.5 -31.5q68 0 125.5 32.5t100.5 102.5t66.5 175.5t23.5 252.5q0 133 -24.5 233.5t-66.5 168t-96.5 101.5t-113.5 34t-114.5 -36t-98.5 -107.5t-70 -179t-27 -253.5z" />
<glyph unicode="1" horiz-adv-x="645" d="M76 1210q31 12 65.5 35t67.5 52.5t60.5 64.5t41.5 72h162v-1434h-213v1122q-41 -49 -81 -72.5t-81 -35.5z" />
<glyph unicode="2" horiz-adv-x="929" d="M84 0q115 193 195.5 337t136 251.5t89.5 181.5t51 126t22.5 87t5.5 61q0 109 -47.5 166.5t-133.5 57.5q-57 0 -103 -21.5t-81 -52.5t-60.5 -65.5t-39.5 -61.5l-27 195q10 20 39 54t73 66.5t105.5 56t139.5 23.5q96 0 161.5 -35.5t105.5 -93t56 -126t16 -136.5 q0 -72 -18 -153.5t-59 -186t-105.5 -234.5t-154.5 -294h380v-203h-747z" />
<glyph unicode="3" horiz-adv-x="950" d="M66 80l51 203q47 -47 121.5 -78t152.5 -31q45 0 89 12.5t78 41t54.5 78.5t20.5 128q0 49 -9.5 96.5t-36 84t-72.5 58t-122 21.5h-149l16 172h78q72 0 120 15.5t76.5 45t40 69.5t11.5 89q0 92 -45 138.5t-144 46.5q-66 0 -125 -22.5t-94 -55.5l-35 176q27 29 99.5 61.5 t181.5 32.5q117 0 191.5 -36.5t115.5 -92t56.5 -121t15.5 -122.5q0 -86 -31 -158t-96 -137q90 -51 131 -147.5t41 -207.5q0 -119 -38 -207t-101.5 -146t-144.5 -87t-167 -29q-59 0 -114.5 12.5t-100.5 30t-75.5 36t-40.5 30.5z" />
<glyph unicode="4" horiz-adv-x="1024" d="M25 389l567 1045h176v-856h150v-189h-150v-389h-213v389h-530zM319 578h236v489z" />
<glyph unicode="5" horiz-adv-x="946" d="M88 63l49 201q45 -41 115 -66.5t145 -25.5q49 0 94.5 20.5t80 58.5t55 93t20.5 127q0 57 -13 101t-48 75t-96.5 47.5t-157.5 16.5h-180l75 723h566l-23 -203h-381l-31 -330q264 -4 382 -105.5t118 -316.5q0 -121 -39 -215t-102.5 -158.5t-145.5 -99.5t-168 -35 q-55 0 -109 10.5t-99 23.5t-74 29.5t-33 28.5z" />
<glyph unicode="6" horiz-adv-x="989" d="M102 494q0 121 27 236.5t70 220t98 192.5t113.5 151.5t116 100.5t104.5 39l141 -86q-53 -35 -125 -93.5t-138.5 -135.5t-116.5 -170t-62 -199q37 61 98 85.5t115 24.5q80 0 148.5 -27.5t117.5 -81t77.5 -130t28.5 -175.5q0 -102 -30.5 -188t-86 -150.5t-135.5 -100.5 t-178 -36q-84 0 -153.5 33t-120.5 98.5t-80 162.5t-29 229zM311 410q0 -57 17.5 -103.5t45 -78t63.5 -48t71 -16.5q96 0 152.5 80t56.5 198q0 102 -45.5 169t-143.5 67q-92 0 -154.5 -71.5t-62.5 -196.5z" />
<glyph unicode="7" horiz-adv-x="899" d="M76 1231v203h807l-518 -1434h-224l434 1231h-499z" />
<glyph unicode="8" horiz-adv-x="1050" d="M94 385q0 92 43 193.5t158 191.5q-72 78 -101.5 163t-29.5 171q0 66 17.5 130t60.5 114.5t113.5 81t176.5 30.5q100 0 169 -27.5t110 -73.5t59.5 -104.5t18.5 -119.5q0 -55 -10.5 -100.5t-31 -85.5t-51 -77.5t-69.5 -78.5q104 -55 166.5 -148.5t62.5 -234.5 q0 -74 -25.5 -152t-79.5 -141.5t-139 -104.5t-204 -41q-109 0 -186.5 37t-129 95.5t-75 132t-23.5 149.5zM303 391q0 -117 56.5 -174t158.5 -57q104 0 165.5 68.5t61.5 179.5q0 113 -64.5 183t-150.5 97q-43 -10 -83.5 -33.5t-72.5 -60.5t-51.5 -88t-19.5 -115zM350 1087 q0 -68 36 -127t130 -96q98 35 136 101.5t38 140.5q0 76 -37 123t-129 47t-133 -51t-41 -138z" />
<glyph unicode="9" horiz-adv-x="991" d="M102 983q0 100 30 187t86 151.5t135 102.5t177 38q80 0 151 -26.5t123 -88t83 -163t31 -248.5q0 -219 -52.5 -392t-131.5 -294t-171 -185.5t-172 -64.5l-139 86q47 23 119.5 70t142.5 119.5t122 172t60 226.5q-18 -27 -49 -46.5t-63.5 -31.5t-62 -18.5t-46.5 -6.5 q-82 0 -150.5 26t-117.5 77t-77 128t-28 181zM311 993q0 -41 9.5 -83t31 -75.5t56.5 -56t88 -22.5q92 0 154.5 69.5t62.5 196.5q0 66 -17.5 113t-46 76.5t-63.5 44t-68 14.5q-51 0 -90 -23.5t-64.5 -62.5t-39 -89.5t-13.5 -101.5z" />
<glyph unicode=":" horiz-adv-x="462" d="M129 0v207h205v-207h-205zM129 694v207h205v-207h-205z" />
<glyph unicode=";" horiz-adv-x="460" d="M102 -197l60 179l-58 18v207h207v-209l-164 -221zM104 694v207h226v-207h-226z" />
<glyph unicode="&#x3c;" horiz-adv-x="786" d="M57 582l375 422h238l-375 -422l375 -422h-238z" />
<glyph unicode="=" horiz-adv-x="864" d="M106 322v167h652v-167h-652zM106 645v168h652v-168h-652z" />
<glyph unicode="&#x3e;" horiz-adv-x="786" d="M117 160l375 422l-375 422h235l377 -422l-377 -422h-235z" />
<glyph unicode="?" horiz-adv-x="780" d="M51 1397q41 63 118 101t165 38q94 0 162.5 -37t114.5 -93t68.5 -125t22.5 -130q0 -96 -44 -182t-96 -170t-96 -168t-44 -176v-45h-137q-4 51 -4 71.5v26.5q0 94 35.5 172t78.5 150.5t79 148.5t36 168q0 121 -55.5 176t-132.5 55q-39 0 -73 -13t-62.5 -33.5t-50 -45 t-36.5 -45.5zM252 0v203h207v-203h-207z" />
<glyph unicode="@" horiz-adv-x="1243" d="M72 348q0 168 54 311.5t145 249t211 165t253 59.5q104 0 185 -37t137.5 -104.5t86.5 -163t30 -214.5q0 -78 -13.5 -153.5t-43.5 -135t-78 -96t-115 -36.5q-33 0 -54.5 17t-21.5 87q0 90 31.5 202.5t66.5 276.5q-35 41 -88 75t-125 34q-84 0 -164 -50.5t-144.5 -131 t-103 -183t-38.5 -207.5q0 -45 8 -87t27.5 -73.5t50 -51t73.5 -19.5q39 0 82 15.5t86 46t82 74.5t68 101q0 -10 -2 -29.5t-2 -41.5q0 -25 5 -53.5t16 -52t30.5 -40t50.5 -16.5q25 0 55.5 11.5t61.5 29.5t60.5 42t49.5 48q-41 -88 -102 -160.5t-136 -125t-161 -81t-178 -28.5 q-201 0 -318.5 138t-117.5 388zM424 354q0 84 32.5 158t81 129t105 87t105.5 32q16 0 42.5 -6t36.5 -39q-12 -82 -48 -170t-83 -161t-99 -120t-95 -47q-41 0 -59.5 39t-18.5 98z" />
<glyph unicode="A" d="M8 0l441 1434h204l439 -1434h-222l-108 373h-424l-109 -373h-221zM410 575h280l-139 537z" />
<glyph unicode="B" horiz-adv-x="1093" d="M100 0v1434h320q106 0 193 -13.5t148.5 -51.5t95.5 -108.5t34 -185.5q0 -94 -22.5 -164.5t-80.5 -146.5q109 -51 160 -134t51 -206q0 -133 -38.5 -216t-102 -129t-141.5 -62.5t-154 -16.5h-463zM311 193h211q59 0 106.5 8t81 32.5t52 68.5t18.5 116q0 74 -18.5 120 t-49 72.5t-72.5 36.5t-89 10h-240v-464zM311 844h217q27 0 55.5 6t52 27.5t39 62.5t15.5 111q0 63 -14 101t-39 58.5t-59.5 26.5t-77.5 6h-189v-399z" />
<glyph unicode="C" horiz-adv-x="1073" d="M61 717q0 170 45.5 307t127 234.5t193.5 150.5t245 53q96 0 188 -23.5t160 -60.5l-23 -204q-76 33 -152.5 59.5t-172.5 26.5q-94 0 -165 -42t-119 -115t-71.5 -172.5t-23.5 -213.5q0 -115 23.5 -214.5t71.5 -172t119 -114.5t165 -42q96 0 174 26.5t151 57.5l23 -205 q-68 -35 -160 -58.5t-188 -23.5q-133 0 -245 53.5t-193.5 150.5t-127 234.5t-45.5 307.5z" />
<glyph unicode="D" horiz-adv-x="1267" d="M135 0v1434h461q131 0 242.5 -48.5t193.5 -140.5t127 -225t45 -303t-45 -303t-127 -225.5t-193.5 -140.5t-242.5 -48h-461zM348 203h248q92 0 162.5 36.5t119 104.5t72 162t23.5 211t-23.5 211t-72 161.5t-119 104.5t-162.5 37h-248v-1028z" />
<glyph unicode="E" horiz-adv-x="993" d="M135 0v1434h780v-203h-563v-381h441v-203h-441v-444h582v-203h-799z" />
<glyph unicode="F" horiz-adv-x="923" d="M135 0v1434h758v-203h-545v-381h420v-203h-420v-647h-213z" />
<glyph unicode="G" horiz-adv-x="1169" d="M61 719q0 168 45.5 306t127 234.5t194.5 149.5t248 53q45 0 96 -6t101.5 -17.5t94.5 -25.5t79 -33l-23 -198q-72 33 -165 55.5t-177 22.5q-100 0 -173 -42t-121 -115t-71.5 -172.5t-23.5 -211.5q0 -119 24.5 -218.5t75.5 -172t126 -113.5t177 -41q39 0 85 7t93 26v321 h-149v191h362v-639q-35 -23 -85 -42.5t-107 -34.5t-117.5 -23.5t-111.5 -8.5q-129 0 -240 53.5t-191.5 150.5t-127 235.5t-46.5 308.5z" />
<glyph unicode="H" horiz-adv-x="1302" d="M135 0v1434h213v-580h606v580h213v-1434h-213v645h-606v-645h-213z" />
<glyph unicode="I" horiz-adv-x="497" d="M141 0v1434h213v-1434h-213z" />
<glyph unicode="J" horiz-adv-x="495" d="M-4 -209h37q66 0 88 49t22 158v1436h213v-1493q0 -145 -75.5 -219t-210.5 -74h-56z" />
<glyph unicode="K" d="M150 0v1434h212v-1434h-212zM412 760l434 674h235l-434 -674l434 -760h-235z" />
<glyph unicode="L" horiz-adv-x="880" d="M135 0v1434h213v-1231h520v-203h-733z" />
<glyph unicode="M" horiz-adv-x="1468" d="M88 0l166 1434h174l311 -715l310 715h176l164 -1434h-222l-102 1018l-326 -715l-325 715l-105 -1018h-221z" />
<glyph unicode="N" horiz-adv-x="1241" d="M135 0v1434h213l545 -1022v1022h213v-1434h-174l-584 1081v-1081h-213z" />
<glyph unicode="O" horiz-adv-x="1337" d="M61 717q0 170 45.5 307t127 234.5t192.5 150.5t244 53q131 0 242.5 -53t192.5 -150.5t126 -234.5t45 -307t-45 -307.5t-126 -234.5t-192.5 -150.5t-242.5 -53.5q-133 0 -244 53.5t-192.5 150.5t-127 234.5t-45.5 307.5zM293 717q0 -115 23.5 -214.5t70.5 -172 t117.5 -114.5t165.5 -42q94 0 163.5 42t116.5 114.5t70.5 172t23.5 214.5t-23.5 214t-70.5 172t-116.5 115t-163.5 42t-165 -42t-118 -115t-70.5 -172.5t-23.5 -213.5z" />
<glyph unicode="P" horiz-adv-x="1044" d="M141 0v1434h361q119 0 212 -15.5t157.5 -63.5t99.5 -136.5t35 -233.5t-41 -240.5t-103.5 -151.5t-136.5 -78.5t-137 -22.5h-234v-492h-213zM354 690h203q123 0 178.5 70.5t55.5 218.5q0 72 -11.5 122t-40 81.5t-77 46t-121.5 14.5h-187v-553z" />
<glyph unicode="Q" horiz-adv-x="1337" d="M61 717q0 170 45.5 307t127 234.5t192.5 150.5t244 53q131 0 242.5 -53t192.5 -150.5t126 -234.5t45 -307q0 -135 -28.5 -251t-84.5 -224l107 -103l-119 -141l-121 113q-76 -72 -167 -106t-193 -34q-133 0 -244 53.5t-192.5 150.5t-127 234.5t-45.5 307.5zM293 717 q0 -115 23.5 -214.5t70.5 -172t117.5 -114.5t165.5 -42q53 0 104 14.5t92 55.5l-155 162l120 145l160 -176q35 90 46.5 174t11.5 168q0 115 -25 214t-72 172t-117.5 115t-164.5 42t-165 -42t-118 -115t-70.5 -172.5t-23.5 -213.5z" />
<glyph unicode="R" horiz-adv-x="1105" d="M141 0v1434h439q90 0 167.5 -20.5t134 -70t89.5 -129t33 -198.5q0 -145 -59.5 -246.5t-151.5 -161.5l280 -608h-223l-260 551h-236v-551h-213zM354 758h189q135 0 188 59.5t53 192.5q0 117 -51 181t-192 64h-187v-497z" />
<glyph unicode="S" horiz-adv-x="1021" d="M68 1051q0 80 24.5 154.5t78.5 132t138 91t203 33.5q59 0 118.5 -8t111 -22.5t93.5 -33t68 -38.5l-22 -223q-100 66 -188.5 95.5t-160.5 29.5q-47 0 -92 -12.5t-78.5 -37t-54 -61.5t-20.5 -84t20.5 -81t55 -59.5t79.5 -46t97 -40.5q92 -37 170.5 -74t137 -88t91.5 -125 t33 -186q0 -80 -20.5 -152t-75 -126t-146.5 -86t-235 -32q-135 0 -243 28t-165 69l25 249q59 -66 161.5 -104.5t212.5 -38.5q121 0 185.5 49t64.5 146q0 55 -21.5 93t-60.5 68.5t-93 57t-120 57.5q-80 37 -147.5 71t-117.5 78t-78.5 105.5t-28.5 151.5z" />
<glyph unicode="T" horiz-adv-x="974" d="M31 1231v203h913v-203h-350v-1231h-213v1231h-350z" />
<glyph unicode="U" horiz-adv-x="1263" d="M121 610v824h213v-732q0 -104 11 -199t43 -168t90.5 -117t152.5 -44t152.5 44t91 117t44 168t11.5 199v732h213v-824q0 -147 -31 -265t-94.5 -201t-159.5 -128t-227 -45q-129 0 -225.5 45t-160 128t-94 201t-30.5 265z" />
<glyph unicode="V" horiz-adv-x="1159" d="M6 1434h221l355 -1168l350 1168h217l-440 -1434h-252z" />
<glyph unicode="W" horiz-adv-x="1695" d="M18 1434h222l252 -1133l282 1114h156l291 -1104l245 1123h220l-361 -1434h-195l-280 1071l-279 -1071h-206z" />
<glyph unicode="X" horiz-adv-x="1099" d="M0 0l430 715l-414 719h244l295 -541l279 541h239l-414 -693l433 -741h-242l-311 565l-297 -565h-242z" />
<glyph unicode="Y" horiz-adv-x="1042" d="M-14 1434h223l307 -586l305 586h226l-424 -781v-653h-213v653z" />
<glyph unicode="Z" horiz-adv-x="970" d="M14 0l590 1231h-510v203h858l-587 -1231h509v-203h-860z" />
<glyph unicode="[" horiz-adv-x="589" d="M119 -276v1812h452v-168h-266v-1477h266v-167h-452z" />
<glyph unicode="\" horiz-adv-x="968" d="M63 1434h220l647 -1608h-219z" />
<glyph unicode="]" horiz-adv-x="589" d="M18 -109h267v1477h-267v168h453v-1812h-453v167z" />
<glyph unicode="^" horiz-adv-x="899" d="M86 868v246l363 440l362 -440v-246l-362 441z" />
<glyph unicode="_" horiz-adv-x="983" d="M-2 -74h987v-182h-987v182z" />
<glyph unicode="`" horiz-adv-x="534" d="M102 1341v170l330 -190v-109z" />
<glyph unicode="a" horiz-adv-x="880" d="M41 276q0 106 53 176t130 110t163 56.5t154 18.5q-2 61 -12.5 102t-30 64.5t-50 33t-73.5 9.5q-57 0 -112.5 -17.5t-125.5 -66.5l-20 168q74 47 151.5 73.5t161.5 26.5q76 0 135.5 -23.5t99.5 -78t61.5 -142.5t21.5 -215v-229q0 -111 14 -153t65 -42h27l-20 -167h-64 q-86 0 -132 35.5t-71 101.5q-47 -63 -117.5 -100t-150.5 -37q-55 0 -102 21.5t-82 60t-54.5 93t-19.5 121.5zM254 287q0 -76 29.5 -110t91.5 -34q39 0 85 31t81 84v238q-57 -4 -109.5 -17.5t-91.5 -39t-62.5 -63.5t-23.5 -89z" />
<glyph unicode="b" horiz-adv-x="1007" d="M102 0v1536h205v-614q45 63 99.5 85.5t121.5 22.5q102 0 180 -43t131.5 -115.5t81 -168t27.5 -199.5q0 -109 -28.5 -205t-82 -167t-132.5 -111.5t-179 -40.5q-70 0 -125 31.5t-102 90.5l-6 -102h-191zM297 504q0 -174 55.5 -259t159.5 -85q53 0 95 26.5t72 72.5t45 108.5 t15 136.5q0 76 -15 139.5t-45 109.5t-72 71.5t-95 25.5q-104 0 -159.5 -88t-55.5 -258z" />
<glyph unicode="c" horiz-adv-x="788" d="M49 506q0 109 26.5 205t81 166.5t134.5 111.5t186 41q104 0 163.5 -19.5t100.5 -45.5l-20 -185q-53 35 -107.5 52.5t-117.5 17.5q-117 0 -177.5 -92t-60.5 -252q0 -158 60.5 -253t177.5 -95q63 0 117.5 17.5t107.5 51.5l20 -172q-41 -29 -99.5 -52t-164.5 -23t-186 41.5 t-134.5 114.5t-81 168t-26.5 202z" />
<glyph unicode="d" horiz-adv-x="1007" d="M55 504q0 104 28 199.5t82 168t132 115.5t180 43q66 0 120 -22.5t99 -83.5v612h205v-1536h-190l-6 102q-47 -59 -102.5 -90.5t-125.5 -31.5q-100 0 -178 40.5t-132 111.5t-83 167t-29 205zM264 504q0 -74 15.5 -136.5t44 -108.5t71.5 -72.5t97 -26.5q104 0 160.5 83 t56.5 257q0 170 -56.5 260t-160.5 90q-53 0 -96.5 -25.5t-72 -71.5t-44 -109.5t-15.5 -139.5z" />
<glyph unicode="e" horiz-adv-x="903" d="M51 510q0 106 29 200.5t82 165t132 112.5t179 42q82 0 152.5 -29.5t123 -85t81 -136.5t28.5 -181q0 -51 -12 -113h-582q8 -92 35 -154.5t64.5 -100t84 -54t93.5 -16.5q61 0 136 17.5t130 49.5l12 -170q-51 -29 -124.5 -53t-168.5 -24q-119 0 -208 41.5t-148 114.5 t-89 169t-30 205zM272 629h377q0 94 -38 157.5t-132 63.5q-90 0 -140 -59.5t-67 -161.5z" />
<glyph unicode="f" horiz-adv-x="598" d="M31 844l18 166h113v252q0 57 12 107t39 87t64.5 58.5t91.5 21.5q43 0 71.5 -1t50 -4t38 -7t36.5 -11l-22 -174q-29 10 -55.5 13.5t-41.5 3.5q-25 0 -41 -9.5t-24 -33t-11 -65.5t-3 -109v-129h200v-166h-200v-844h-205v844h-131z" />
<glyph unicode="g" horiz-adv-x="884" d="M43 -213q0 66 38 128t109 103q-41 29 -61 65t-20 69q0 35 21.5 74.5t70.5 70.5q-74 72 -107 157t-33 177q0 80 24 152.5t69 127t111.5 87t152.5 32.5q121 0 205 -69q29 23 79 38t113 15h47l-16 -135h-68q-10 0 -28.5 -3.5t-34.5 -7.5q33 -59 46 -118.5t13 -116.5 q0 -78 -23.5 -150.5t-67.5 -128t-109.5 -89.5t-149.5 -34q-31 0 -55.5 4.5t-49.5 12.5q-25 -20 -24 -51q0 -39 56.5 -56.5t174.5 -42.5q47 -10 108.5 -26.5t116 -48t92.5 -84t38 -132.5q0 -66 -28 -124t-82 -101t-133 -68.5t-183 -25.5q-111 0 -189 27.5t-127 71.5 t-72.5 97.5t-23.5 102.5zM217 -199q0 -68 60.5 -112.5t168.5 -44.5q111 0 178.5 46t67.5 105q0 31 -18.5 52.5t-51 38t-74.5 28t-87 23.5q-18 4 -54 15t-65 15q-51 -23 -88 -66.5t-37 -99.5zM246 629q0 -111 44 -175.5t126 -64.5q86 0 129 68.5t43 177.5q0 111 -44 172 t-126 61q-86 0 -129 -65.5t-43 -173.5z" />
<glyph unicode="h" horiz-adv-x="972" d="M109 0v1536h204v-614q83 108 197 108h2q100 0 170 -36t114 -100.5t63.5 -154.5t19.5 -198v-541h-205v541q0 166 -42 237.5t-140 71.5q-119 0 -179 -117v-733h-204z" />
<glyph unicode="i" horiz-adv-x="421" d="M109 0v1010h204v-1010h-204zM109 1212v222h204v-222h-204z" />
<glyph unicode="j" horiz-adv-x="421" d="M-2 -332q37 2 58.5 10.5t32.5 28t15.5 55t4.5 97.5v1151h204v-1231q0 -135 -59 -196.5t-164 -71.5l-74 -7zM109 1212v222h204v-222h-204z" />
<glyph unicode="k" horiz-adv-x="856" d="M111 0v1536h204v-967l289 441h234l-332 -471l334 -539h-236l-289 492v-492h-204z" />
<glyph unicode="l" horiz-adv-x="466" d="M106 229v1307h205v-1200q0 -63 4 -100t16.5 -56.5t35 -26t57.5 -6.5l-21 -167h-71q-59 0 -102.5 20t-71 55t-40 80t-12.5 94z" />
<glyph unicode="m" horiz-adv-x="1525" d="M102 0v1010h168l13 -97q47 63 105 90t128 27q76 0 150.5 -38t124.5 -148q27 78 102.5 132t193.5 54q176 0 261.5 -115.5t85.5 -336.5v-578h-205v575q0 141 -38 208t-134 67q-59 0 -96 -23.5t-56.5 -60.5t-27 -81t-7.5 -85v-600h-204v553q0 88 -11.5 146.5t-34 91 t-56.5 46t-79 13.5q-121 0 -178 -115v-735h-205z" />
<glyph unicode="n" horiz-adv-x="972" d="M102 0v1010h187l6 -90q47 61 103.5 85.5t111.5 24.5q100 0 171 -33.5t116 -96t64.5 -150.5t19.5 -197v-553h-205v553q0 154 -44 225.5t-145 71.5q-121 0 -180 -117v-733h-205z" />
<glyph unicode="o" horiz-adv-x="980" d="M49 504q0 109 30 205t86 167.5t139 112.5t188 41q104 0 186 -41t138 -112.5t86 -168t30 -204.5q0 -109 -30 -204t-86 -167t-138 -112.5t-186 -40.5t-187.5 40.5t-139.5 112.5t-86 167t-30 204zM258 504q0 -160 60.5 -252t173.5 -92q111 0 171 92t60 252q0 162 -60 254 t-171 92q-113 0 -173.5 -92t-60.5 -254z" />
<glyph unicode="p" horiz-adv-x="1005" d="M106 -496v1506h177l16 -113q47 63 100.5 98t132.5 35q102 0 180.5 -43t131.5 -115.5t80.5 -168t27.5 -199.5q0 -109 -26.5 -205t-79.5 -167t-131.5 -111.5t-182.5 -40.5q-131 0 -221 120v-596h-205zM301 504q0 -174 56.5 -259t160.5 -85q53 0 95 26.5t71 72.5t44 108.5 t15 136.5q0 76 -15 139.5t-44 109.5t-71 71.5t-95 25.5q-104 0 -160.5 -88t-56.5 -258z" />
<glyph unicode="q" horiz-adv-x="1005" d="M106 504q0 104 28 199.5t81 168t131 115.5t180 43q82 0 135.5 -34.5t100.5 -98.5l18 113h172v-1506h-202v596q-93 -120 -222 -120q-104 0 -183 40.5t-132 111.5t-80 167t-27 205zM317 504q0 -74 15.5 -136.5t44.5 -108.5t70.5 -72.5t95.5 -26.5q104 0 159.5 85t55.5 259 q0 170 -55.5 258t-159.5 88q-53 0 -95 -25.5t-71 -71.5t-44.5 -109.5t-15.5 -139.5z" />
<glyph unicode="r" horiz-adv-x="606" d="M109 0v1010h186l8 -146q45 82 108.5 129t139.5 47h49l-41 -215h-76q-53 0 -101 -36.5t-67 -83.5v-705h-206z" />
<glyph unicode="s" horiz-adv-x="743" d="M66 63l18 191q18 -16 48 -33.5t65.5 -33t75.5 -25.5t81 -10q82 0 113 33.5t31 86.5q0 37 -13.5 62.5t-37 44t-53 31t-60.5 22.5q-47 14 -93 32.5t-83 50.5t-59.5 81t-22.5 125q0 55 16.5 110.5t53 99.5t99 71.5t154.5 27.5q86 0 158 -22.5t109 -46.5l-21 -185 q-35 37 -98.5 66.5t-134.5 29.5q-61 0 -106.5 -30.5t-45.5 -98.5q0 -35 15.5 -59.5t42 -40.5t63.5 -29.5t80 -27.5q41 -12 84 -33t78.5 -55.5t58.5 -87t23 -131.5q0 -49 -12.5 -101.5t-49.5 -96.5t-103.5 -72.5t-177.5 -28.5q-106 0 -184 28.5t-112 54.5z" />
<glyph unicode="t" horiz-adv-x="610" d="M35 844l18 166h113v241l203 21v-262h200v-166h-200v-506q0 -68 4 -105.5t18.5 -56t43 -24t79.5 -5.5h55l-18 -167h-152q-63 0 -107 21.5t-71.5 56t-41 79.5t-13.5 92v615h-131z" />
<glyph unicode="u" horiz-adv-x="972" d="M94 438v572h205v-539q0 -154 42 -232.5t138 -78.5q109 0 174 104v746h203v-1010h-188l-6 94q-81 -114 -205 -114h-2q-195 0 -278 117.5t-83 340.5z" />
<glyph unicode="v" horiz-adv-x="872" d="M8 1010h207l223 -768l221 768h205l-336 -1010h-182z" />
<glyph unicode="w" horiz-adv-x="1280" d="M20 1010h207l156 -770l168 743h178l170 -743l156 770h207l-258 -1010h-183l-180 717l-182 -717h-183z" />
<glyph unicode="x" horiz-adv-x="858" d="M20 0l287 504l-284 506h241l174 -359l160 359h244l-287 -496l289 -514h-242l-174 358l-166 -358h-242z" />
<glyph unicode="y" horiz-adv-x="946" d="M10 1010h228l235 -715l232 715h229l-547 -1506h-209l197 549z" />
<glyph unicode="z" horiz-adv-x="831" d="M37 0l405 840h-387v170h738l-406 -838h389v-172h-739z" />
<glyph unicode="{" horiz-adv-x="559" d="M31 629q76 51 107.5 118.5t31.5 182.5q0 72 -6 150.5t-6 138.5q0 74 18.5 131t63.5 98t117.5 63.5t181.5 24.5v-170q-80 -2 -125 -16.5t-65.5 -51t-25 -99t-4.5 -161.5q0 -41 3.5 -86t3.5 -88q0 -66 -18.5 -122t-86.5 -113q68 -55 86.5 -105.5t18.5 -111.5 q0 -45 -3.5 -91.5t-3.5 -99.5q0 -98 4.5 -160.5t25 -99.5t65.5 -52t125 -18v-167q-209 4 -295 83.5t-86 231.5q0 59 6 139t6 152q0 106 -28.5 175.5t-110.5 123.5z" />
<glyph unicode="|" horiz-adv-x="389" d="M111 -428v1964h170v-1964h-170z" />
<glyph unicode="}" horiz-adv-x="559" d="M31 -109q80 2 125 17.5t65.5 52.5t24.5 99.5t4 160.5q0 53 -3 99.5t-3 91.5q0 61 18.5 111t85.5 106q-68 57 -86 113.5t-18 121.5q0 43 3 88t3 86q0 98 -4 161t-24.5 99.5t-65.5 51t-125 16.5v170q109 -2 181.5 -24.5t117.5 -63.5t63.5 -98.5t18.5 -130.5 q0 -59 -6.5 -138.5t-6.5 -150.5q0 -115 32 -182.5t108 -118.5q-82 -53 -111 -123t-29 -176q0 -72 6.5 -152t6.5 -139q0 -152 -86 -231.5t-295 -83.5v167z" />
<glyph unicode="~" horiz-adv-x="811" d="M139 389q6 51 27.5 88t51.5 59.5t64.5 34t67.5 11.5q37 0 66.5 -14.5t54.5 -33t48.5 -33t47.5 -14.5q41 0 69 30t38 73l114 -27q-12 -86 -64 -142t-138 -56q-33 0 -63.5 15t-58.5 33.5t-53.5 34t-50.5 15.5q-41 0 -63.5 -28.5t-30.5 -69.5z" />
<glyph unicode="&#xa1;" horiz-adv-x="444" d="M113 -512h219l-41 1126h-139zM121 821h203v203h-203v-203z" />
<glyph unicode="&#xa2;" horiz-adv-x="833" d="M59 709q0 100 23.5 191t69 162t112 118t152.5 61l-29 291h180l-28 -289q78 -4 126 -21.5t85 -45.5l-17 -181q-53 35 -108.5 54.5t-110.5 19.5q-61 0 -106.5 -27.5t-76 -75.5t-46 -114t-15.5 -141q0 -160 62.5 -257.5t183.5 -97.5q109 0 217 72l17 -180q-35 -25 -80 -43.5 t-125 -24.5l22 -243h-180l29 247q-84 12 -150.5 56.5t-113 113t-70 158.5t-23.5 197z" />
<glyph unicode="&#xa3;" horiz-adv-x="921" d="M57 0q49 72 84 142.5t58.5 146.5t38 158.5t22.5 181.5h-160l37 188h133v221q0 80 11.5 155t45 133t96 94t163.5 36q109 0 187.5 -48t100.5 -134l-131 -121q-23 59 -53.5 87t-83.5 28q-49 0 -75.5 -16.5t-39 -50.5t-15.5 -86t-3 -122v-176h328l-39 -188h-299 q-4 -70 -8 -122t-11.5 -98.5t-19.5 -94.5t-33 -111h424v-203h-758z" />
<glyph unicode="&#xa4;" horiz-adv-x="1071" d="M82 121l129 205q-121 170 -121 387t123 387l-131 205l94 67l131 -207q98 72 228 72q129 0 227 -74l135 209l92 -67l-131 -207q61 -86 91 -182.5t30 -202.5q0 -217 -123 -389l133 -203l-94 -68l-133 207q-51 -39 -106.5 -55.5t-120.5 -16.5q-66 0 -121.5 16.5t-106.5 55.5 l-131 -207zM299 713q0 -78 15.5 -145.5t45 -117t73.5 -78t102 -28.5q57 0 101 28.5t74.5 78t46 117t15.5 145.5t-15.5 145.5t-46 116.5t-74.5 77.5t-101 28.5t-101.5 -28.5t-74 -77.5t-45 -116.5t-15.5 -145.5z" />
<glyph unicode="&#xa5;" horiz-adv-x="1247" d="M55 1434h219l349 -607l348 607h219l-436 -772h274l-45 -121h-254v-127h299l-45 -121h-254v-293h-213v293h-295l41 121h254v127h-295l41 121h230z" />
<glyph unicode="&#xa6;" horiz-adv-x="393" d="M119 352h155v-782h-155v782zM119 614v922h155v-922h-155z" />
<glyph unicode="&#xa7;" horiz-adv-x="804" d="M66 678q0 39 6 83t22.5 85t48 76.5t82.5 58.5q-47 53 -65.5 106.5t-18.5 112.5q0 61 14.5 121.5t48.5 108t92 77t144 29.5q37 0 76 -7t74 -19.5t61.5 -27t42.5 -28.5l-18 -160q-49 39 -111.5 67t-115.5 28q-63 0 -112.5 -43t-49.5 -115q0 -61 33.5 -97t84 -63 t108.5 -52.5t108.5 -66.5t84 -104.5t33.5 -167.5q0 -37 -6 -78t-23.5 -81t-49 -75.5t-80.5 -62.5q47 -57 64.5 -109.5t17.5 -123.5q0 -55 -14.5 -111.5t-48.5 -104t-91 -77t-146 -29.5q-37 0 -74.5 6t-72.5 17.5t-62.5 25.5t-41.5 31l16 160q49 -39 111.5 -65t117.5 -26 q63 0 113.5 35t50.5 117q0 68 -33.5 104.5t-84 62.5t-110 48.5t-109.5 61t-83.5 102t-33.5 170.5zM221 709q0 -49 23.5 -88t58.5 -68t78 -49.5t84 -34.5q18 6 39.5 23.5t38 43t28 56.5t11.5 63q0 55 -25 94t-59.5 65t-75.5 40.5t-74 22.5q-16 0 -37.5 -9.5t-41 -30t-34 -52 t-14.5 -76.5z" />
<glyph unicode="&#xa8;" horiz-adv-x="743" d="M154 1225v209h159v-209h-159zM430 1225v209h160v-209h-160z" />
<glyph unicode="&#xa9;" horiz-adv-x="1232" d="M70 748q0 154 41 277.5t113.5 210.5t173 135t218.5 48q119 0 219.5 -48t173 -135t113.5 -211t41 -277q0 -152 -41 -276t-113.5 -212t-173 -136t-219.5 -48t-219 48t-172.5 136t-113.5 212t-41 276zM197 748q0 -121 25.5 -223.5t77.5 -178.5t131 -119t185 -41 q106 -2 185.5 41t131.5 119t78.5 178.5t26.5 223.5q0 119 -26.5 222t-78.5 178t-131.5 118t-185.5 43t-185 -43t-131 -118t-77.5 -178.5t-25.5 -221.5zM346 743q0 160 80 253.5t207 93.5q45 0 91 -11.5t83 -29.5l-19 -142q-39 18 -76.5 30.5t-78.5 12.5q-68 0 -102.5 -57 t-34.5 -150q0 -90 34.5 -148t102.5 -58q41 0 79 12t76 33l19 -140q-37 -23 -83 -33t-91 -10q-61 0 -114.5 25t-91.5 70t-59.5 108.5t-21.5 140.5z" />
<glyph unicode="&#xaa;" horiz-adv-x="618" d="M53 1067q0 61 35 101t82 63.5t94 33t72 11.5q-4 29 -16.5 49.5t-59.5 20.5q-41 0 -74.5 -10.5t-79.5 -26.5l-8 137q66 25 115 34t96 9q39 0 76 -12.5t64.5 -37t44 -62.5t16.5 -91v-182q0 -51 8 -62.5t23 -11.5h24l-6 -141h-90q-35 0 -62.5 16.5t-41.5 38.5 q-23 -29 -71 -42t-93 -13q-55 0 -101.5 45t-46.5 133zM233 1073q0 -29 11.5 -43t48.5 -14q4 0 16.5 4t28.5 14v129q-6 0 -23.5 -6t-35 -17.5t-32 -28.5t-14.5 -38z" />
<glyph unicode="&#xab;" horiz-adv-x="1069" d="M18 582l267 422h239l-266 -422l266 -422h-239zM477 582l266 422h240l-266 -422l266 -422h-240z" />
<glyph unicode="&#xac;" horiz-adv-x="1001" d="M86 684v147h811v-522h-152v375h-659z" />
<glyph unicode="&#xad;" horiz-adv-x="784" d="M119 471v193h547v-193h-547z" />
<glyph unicode="&#xae;" horiz-adv-x="1232" d="M70 748q0 154 41 277.5t113.5 210.5t173 135t218.5 48q119 0 219.5 -48t173 -135t113.5 -211t41 -277q0 -152 -41 -276t-113.5 -212t-173 -136t-219.5 -48t-219 48t-172.5 136t-113.5 212t-41 276zM197 748q0 -121 26.5 -223.5t78.5 -179.5t131 -120t183 -43 q106 0 185.5 43t131.5 120t77.5 179.5t25.5 223.5q0 119 -25.5 222t-77.5 179t-131.5 119t-185.5 43q-104 0 -183 -43t-131 -119t-78.5 -179.5t-26.5 -221.5zM399 426v666h222q45 0 81.5 -10.5t64.5 -34t43 -64.5t15 -102q0 -55 -25.5 -101.5t-60.5 -77.5l131 -276h-153 l-111 236h-61v-236h-146zM545 793h47q53 0 69.5 26.5t16.5 65.5q0 41 -14.5 64.5t-67.5 23.5h-51v-180z" />
<glyph unicode="&#xb0;" horiz-adv-x="573" d="M53 1266q0 57 15.5 108t46 89t73.5 60.5t99 22.5q55 0 98 -22.5t73.5 -60.5t46 -89t15.5 -108t-15.5 -108.5t-46 -89.5t-73.5 -59.5t-98 -21.5t-98.5 21.5t-74 59.5t-46 89t-15.5 109zM164 1266q-2 -84 30.5 -145.5t92.5 -61.5q59 0 91 61.5t32 145.5q0 41 -8.5 78.5 t-24 66.5t-37.5 46.5t-53 17.5q-29 0 -52.5 -17.5t-40 -46.5t-24.5 -66.5t-6 -78.5z" />
<glyph unicode="&#xb1;" horiz-adv-x="819" d="M84 78v155h651v-155h-651zM84 657v156h250v277h151v-277h250v-156h-250v-282h-151v282h-250z" />
<glyph unicode="&#xb2;" horiz-adv-x="647" d="M84 655q98 156 153.5 254.5t83 159.5t33.5 92t6 51q0 47 -16 75t-53 28q-35 0 -62.5 -15.5t-49 -37t-35 -43t-17.5 -33.5l-21 147q23 37 76.5 75t134.5 38q57 0 94.5 -19.5t60 -50t31.5 -67.5t9 -70q0 -74 -37 -172t-117 -248h177v-164h-451z" />
<glyph unicode="&#xb3;" horiz-adv-x="657" d="M90 700l41 152q4 -18 49 -33.5t101 -15.5q53 0 81.5 20.5t28.5 77.5q0 37 -17.5 75t-72.5 38h-108l10 125h57q63 0 81.5 28.5t18.5 59.5q0 35 -19 58.5t-83 23.5q-23 0 -47.5 -5.5t-52.5 -25.5l-23 117q23 18 66 34.5t102 16.5q66 0 108 -21.5t65.5 -54.5t32.5 -70.5 t9 -70.5q0 -37 -12 -81t-51 -63q41 -33 65.5 -75.5t24.5 -110.5q0 -66 -22.5 -115t-59.5 -80.5t-84 -48t-96 -16.5q-35 0 -67 7t-58.5 16.5t-44 19.5t-23.5 18z" />
<glyph unicode="&#xb4;" horiz-adv-x="534" d="M102 1212v109l330 190v-170z" />
<glyph unicode="&#xb5;" horiz-adv-x="1071" d="M123 -496v1506h205v-535q0 -154 41 -234.5t143 -80.5q57 0 98 25.5t76 80.5v744h203v-660q0 -111 15.5 -157t62.5 -46h32l-22 -167h-72q-135 0 -190 135q-41 -59 -98.5 -97t-122.5 -38q-47 0 -87 11t-79 50v-537h-205z" />
<glyph unicode="&#xb6;" d="M57 965q0 86 31 171t94.5 150.5t157.5 106.5t223 41h457v-166h-123v-1268h-139v1268h-125v-1268h-111v487q-117 8 -205 52.5t-145 111t-86 148.5t-29 166z" />
<glyph unicode="&#xb7;" horiz-adv-x="444" d="M113 436v266h219v-266h-219z" />
<glyph unicode="&#xb8;" horiz-adv-x="534" d="M233 -395l121 272l168 14l-170 -272z" />
<glyph unicode="&#xb9;" horiz-adv-x="481" d="M94 1309q12 2 30.5 13t36 28.5t31 38t15.5 41.5h127v-775h-162v543q-2 -4 -22.5 -11t-49.5 -11z" />
<glyph unicode="&#xba;" horiz-adv-x="663" d="M53 1190q0 59 18.5 113.5t54.5 95.5t88 65.5t118 24.5t118 -24.5t87.5 -65.5t54 -95.5t18.5 -113.5t-18.5 -114.5t-54 -96.5t-87.5 -65.5t-118 -24.5t-118 24.5t-88 65.5t-54.5 96t-18.5 115zM227 1190q0 -70 28 -118t77 -48t76.5 48t27.5 118q0 72 -27.5 119t-76.5 47 t-77 -47t-28 -119z" />
<glyph unicode="&#xbb;" horiz-adv-x="1069" d="M86 160l266 422l-266 422h240l266 -422l-266 -422h-240zM545 160l264 422l-264 422h239l265 -422l-265 -422h-239z" />
<glyph unicode="&#xbc;" horiz-adv-x="1511" d="M176 1309q12 2 30.5 13t36 28.5t31 38t15.5 41.5h127v-775h-162v543q-2 -4 -22.5 -11t-49.5 -11zM209 -174l647 1608h223l-649 -1608h-221zM780 213l330 564h137v-437h86v-127h-86v-211h-160v211h-307zM983 340h104v201z" />
<glyph unicode="&#xbd;" horiz-adv-x="1513" d="M176 1309q12 2 30.5 13t36 28.5t31 38t15.5 41.5h127v-775h-162v543q-2 -4 -22.5 -11t-49.5 -11zM209 -174l647 1608h223l-649 -1608h-221zM887 2q98 156 153.5 254.5t83 159.5t33.5 92t6 51q0 47 -16 75t-53 28q-35 0 -62.5 -15.5t-49 -37t-35 -43t-17.5 -33.5l-21 147 q23 37 76.5 75t134.5 38q57 0 94.5 -19.5t60 -50t31.5 -67.5t9 -70q0 -74 -37 -172t-117 -248h177v-164h-451z" />
<glyph unicode="&#xbe;" horiz-adv-x="1820" d="M176 700l41 152q4 -18 49 -33.5t101 -15.5q53 0 81.5 20.5t28.5 77.5q0 37 -17.5 75t-72.5 38h-108l10 125h57q63 0 81.5 28.5t18.5 59.5q0 35 -19 58.5t-83 23.5q-23 0 -47.5 -5.5t-52.5 -25.5l-23 117q23 18 66 34.5t102 16.5q66 0 108 -21.5t65.5 -54.5t32.5 -70.5 t9 -70.5q0 -37 -12 -81t-51 -63q41 -33 65.5 -75.5t24.5 -110.5q0 -66 -22.5 -115t-59.5 -80.5t-84 -48t-96 -16.5q-35 0 -67 7t-58.5 16.5t-44 19.5t-23.5 18zM516 -174l647 1608h223l-649 -1608h-221zM1091 213l330 564h137v-437h86v-127h-86v-211h-160v211h-307z M1294 340h104v201z" />
<glyph unicode="&#xbf;" horiz-adv-x="780" d="M51 -127q0 63 20.5 122.5t51.5 117t67.5 113t67.5 111.5t51.5 113.5t20.5 118.5v45h139q4 -51 5 -71.5t1 -26.5q0 -96 -36 -173t-80 -149.5t-79.5 -148.5t-35.5 -168q0 -121 55 -176t133 -55q39 0 74 13t62.5 33.5t49 44t35.5 46.5l49 -156q-41 -63 -117.5 -101 t-162.5 -38q-94 0 -164 37t-116 93t-68.5 125t-22.5 130zM297 821v203h205v-203h-205z" />
<glyph unicode="&#xc0;" d="M8 0l441 1434h204l439 -1434h-222l-108 373h-424l-109 -373h-221zM387 1765v170l330 -190v-109zM410 575h280l-139 537z" />
<glyph unicode="&#xc1;" d="M8 0l441 1434h204l439 -1434h-222l-108 373h-424l-109 -373h-221zM387 1636v109l330 190v-170zM410 575h280l-139 537z" />
<glyph unicode="&#xc2;" d="M8 0l441 1434h204l439 -1434h-222l-108 373h-424l-109 -373h-221zM291 1647v100l258 207l260 -207v-100l-260 159zM410 575h280l-139 537z" />
<glyph unicode="&#xc3;" d="M8 0l441 1434h204l439 -1434h-222l-108 373h-424l-109 -373h-221zM225 1675q6 51 27.5 88t51.5 60.5t64.5 35t67.5 11.5q37 0 66.5 -15.5t54.5 -33t48.5 -32.5t47.5 -15q41 0 69 29.5t38 72.5l114 -27q-12 -86 -64 -142t-138 -56q-33 0 -63.5 15t-58.5 33.5t-53.5 34 t-50.5 15.5q-41 0 -63.5 -28.5t-30.5 -69.5zM410 575h280l-139 537z" />
<glyph unicode="&#xc4;" d="M8 0l441 1434h204l439 -1434h-222l-108 373h-424l-109 -373h-221zM332 1649v209h159v-209h-159zM410 575h280l-139 537zM608 1649v209h160v-209h-160z" />
<glyph unicode="&#xc5;" d="M8 0l441 1434h204l439 -1434h-222l-108 373h-424l-109 -373h-221zM367 1786q0 37 12 69.5t35.5 58.5t57.5 41t77 15t78 -15t58.5 -41t35.5 -58.5t12 -69.5q0 -72 -48 -127t-136 -55q-86 0 -134 55t-48 127zM410 575h280l-139 537zM467 1786q0 -51 23.5 -80t58.5 -29 t59.5 29t24.5 80q0 47 -24.5 77.5t-59.5 30.5t-58.5 -30.5t-23.5 -77.5z" />
<glyph unicode="&#xc6;" horiz-adv-x="1525" d="M-16 0l602 1434h864v-205h-526v-379h405v-203h-405v-444h542v-203h-768v360h-348l-149 -360h-217zM446 571h252v654z" />
<glyph unicode="&#xc7;" horiz-adv-x="1073" d="M61 717q0 170 45.5 307t127 234.5t193.5 150.5t245 53q96 0 188 -23.5t160 -60.5l-23 -204q-76 33 -152.5 59.5t-172.5 26.5q-94 0 -165 -42t-119 -115t-71.5 -172.5t-23.5 -213.5q0 -115 23.5 -214.5t71.5 -172t119 -114.5t165 -42q96 0 174 26.5t151 57.5l23 -205 q-68 -35 -160 -58.5t-188 -23.5q-133 0 -245 53.5t-193.5 150.5t-127 234.5t-45.5 307.5zM391 -395l121 272l168 14l-170 -272z" />
<glyph unicode="&#xc8;" horiz-adv-x="962" d="M135 0v1434h780v-203h-563v-381h441v-203h-441v-444h582v-203h-799zM317 1765v170l330 -190v-109z" />
<glyph unicode="&#xc9;" horiz-adv-x="962" d="M135 0v1434h780v-203h-563v-381h441v-203h-441v-444h582v-203h-799zM317 1636v109l330 190v-170z" />
<glyph unicode="&#xca;" horiz-adv-x="962" d="M135 0v1434h780v-203h-563v-381h441v-203h-441v-444h582v-203h-799zM221 1647v100l258 207l260 -207v-100l-260 159z" />
<glyph unicode="&#xcb;" horiz-adv-x="962" d="M135 0v1434h780v-203h-563v-381h441v-203h-441v-444h582v-203h-799zM263 1649v209h159v-209h-159zM539 1649v209h160v-209h-160z" />
<glyph unicode="&#xcc;" horiz-adv-x="497" d="M86 1765v170l330 -190v-109zM141 0v1434h213v-1434h-213z" />
<glyph unicode="&#xcd;" horiz-adv-x="497" d="M86 1636v109l330 190v-170zM141 0v1434h213v-1434h-213z" />
<glyph unicode="&#xce;" horiz-adv-x="497" d="M-8 1647v100l258 207l260 -207v-100l-260 159zM141 0v1434h213v-1434h-213z" />
<glyph unicode="&#xcf;" horiz-adv-x="497" d="M33 1649v209h159v-209h-159zM141 0v1434h213v-1434h-213zM309 1649v209h160v-209h-160z" />
<glyph unicode="&#xd0;" horiz-adv-x="1288" d="M-6 631v153h164v650h458q131 0 243 -48.5t194 -140.5t127 -225t45 -303t-45 -303t-127 -225.5t-193.5 -140.5t-243.5 -48h-458v631h-164zM367 203h249q92 0 163 36.5t119 103.5t71.5 162t23.5 212t-23.5 212t-71.5 161.5t-118.5 103.5t-163.5 37h-249v-447h219v-153h-219 v-428z" />
<glyph unicode="&#xd1;" horiz-adv-x="1241" d="M135 0v1434h213l545 -1022v1022h213v-1434h-174l-584 1081v-1081h-213zM295 1675q6 51 27.5 88t51.5 60.5t64.5 35t67.5 11.5q37 0 66.5 -15.5t54.5 -33t48.5 -32.5t47.5 -15q41 0 69 29.5t38 72.5l114 -27q-12 -86 -64 -142t-138 -56q-33 0 -63.5 15t-58.5 33.5 t-53.5 34t-50.5 15.5q-41 0 -63.5 -28.5t-30.5 -69.5z" />
<glyph unicode="&#xd2;" horiz-adv-x="1337" d="M61 717q0 170 45.5 307t127 234.5t192.5 150.5t244 53q131 0 242.5 -53t192.5 -150.5t126 -234.5t45 -307t-45 -307.5t-126 -234.5t-192.5 -150.5t-242.5 -53.5q-133 0 -244 53.5t-192.5 150.5t-127 234.5t-45.5 307.5zM293 717q0 -115 23.5 -214.5t70.5 -172 t117.5 -114.5t165.5 -42q94 0 163.5 42t116.5 114.5t70.5 172t23.5 214.5t-23.5 214t-70.5 172t-116.5 115t-163.5 42t-165 -42t-118 -115t-70.5 -172.5t-23.5 -213.5zM503 1765v170l330 -190v-109z" />
<glyph unicode="&#xd3;" horiz-adv-x="1337" d="M61 717q0 170 45.5 307t127 234.5t192.5 150.5t244 53q131 0 242.5 -53t192.5 -150.5t126 -234.5t45 -307t-45 -307.5t-126 -234.5t-192.5 -150.5t-242.5 -53.5q-133 0 -244 53.5t-192.5 150.5t-127 234.5t-45.5 307.5zM293 717q0 -115 23.5 -214.5t70.5 -172 t117.5 -114.5t165.5 -42q94 0 163.5 42t116.5 114.5t70.5 172t23.5 214.5t-23.5 214t-70.5 172t-116.5 115t-163.5 42t-165 -42t-118 -115t-70.5 -172.5t-23.5 -213.5zM503 1636v109l330 190v-170z" />
<glyph unicode="&#xd4;" horiz-adv-x="1337" d="M61 717q0 170 45.5 307t127 234.5t192.5 150.5t244 53q131 0 242.5 -53t192.5 -150.5t126 -234.5t45 -307t-45 -307.5t-126 -234.5t-192.5 -150.5t-242.5 -53.5q-133 0 -244 53.5t-192.5 150.5t-127 234.5t-45.5 307.5zM293 717q0 -115 23.5 -214.5t70.5 -172 t117.5 -114.5t165.5 -42q94 0 163.5 42t116.5 114.5t70.5 172t23.5 214.5t-23.5 214t-70.5 172t-116.5 115t-163.5 42t-165 -42t-118 -115t-70.5 -172.5t-23.5 -213.5zM409 1647v100l258 207l260 -207v-100l-260 159z" />
<glyph unicode="&#xd5;" horiz-adv-x="1337" d="M61 717q0 170 45.5 307t127 234.5t192.5 150.5t244 53q131 0 242.5 -53t192.5 -150.5t126 -234.5t45 -307t-45 -307.5t-126 -234.5t-192.5 -150.5t-242.5 -53.5q-133 0 -244 53.5t-192.5 150.5t-127 234.5t-45.5 307.5zM293 717q0 -115 23.5 -214.5t70.5 -172 t117.5 -114.5t165.5 -42q94 0 163.5 42t116.5 114.5t70.5 172t23.5 214.5t-23.5 214t-70.5 172t-116.5 115t-163.5 42t-165 -42t-118 -115t-70.5 -172.5t-23.5 -213.5zM344 1675q6 51 27.5 88t51.5 60.5t64.5 35t67.5 11.5q37 0 66.5 -15.5t54.5 -33t48.5 -32.5t47.5 -15 q41 0 69 29.5t38 72.5l114 -27q-12 -86 -64 -142t-138 -56q-33 0 -63.5 15t-58.5 33.5t-53.5 34t-50.5 15.5q-41 0 -63.5 -28.5t-30.5 -69.5z" />
<glyph unicode="&#xd6;" horiz-adv-x="1337" d="M61 717q0 170 45.5 307t127 234.5t192.5 150.5t244 53q131 0 242.5 -53t192.5 -150.5t126 -234.5t45 -307t-45 -307.5t-126 -234.5t-192.5 -150.5t-242.5 -53.5q-133 0 -244 53.5t-192.5 150.5t-127 234.5t-45.5 307.5zM293 717q0 -115 23.5 -214.5t70.5 -172 t117.5 -114.5t165.5 -42q94 0 163.5 42t116.5 114.5t70.5 172t23.5 214.5t-23.5 214t-70.5 172t-116.5 115t-163.5 42t-165 -42t-118 -115t-70.5 -172.5t-23.5 -213.5zM451 1649v209h159v-209h-159zM727 1649v209h160v-209h-160z" />
<glyph unicode="&#xd7;" horiz-adv-x="755" d="M86 328l195 239l-195 240l98 90l193 -240l196 240l97 -90l-195 -240l195 -239l-97 -90l-196 239l-193 -239z" />
<glyph unicode="&#xd8;" horiz-adv-x="1337" d="M61 717q0 170 45.5 307t127 234.5t192.5 150.5t244 53q156 0 280 -80l45 84h222l-119 -190q86 -109 132 -248t46 -313q0 -170 -45 -306.5t-126 -233.5t-192.5 -149.5t-244.5 -52.5q-160 0 -289 84l-66 -118h-219l139 223q-82 111 -127 248t-45 307zM295 715 q0 -92 15.5 -178t51.5 -185l469 854q-41 29 -79.5 39t-83.5 10q-92 0 -163 -40.5t-117 -113.5t-69.5 -171.5t-23.5 -214.5zM498 229q41 -29 83 -40t89 -11q92 0 162.5 41t116.5 114t69.5 172t23.5 214q0 96 -16 194.5t-55 176.5z" />
<glyph unicode="&#xd9;" horiz-adv-x="1263" d="M121 610v824h213v-732q0 -104 11 -199t43 -168t90.5 -117t152.5 -44t152.5 44t91 117t44 168t11.5 199v732h213v-824q0 -147 -31 -265t-94.5 -201t-159.5 -128t-227 -45q-129 0 -225.5 45t-160 128t-94 201t-30.5 265zM467 1765v170l330 -190v-109z" />
<glyph unicode="&#xda;" horiz-adv-x="1263" d="M121 610v824h213v-732q0 -104 11 -199t43 -168t90.5 -117t152.5 -44t152.5 44t91 117t44 168t11.5 199v732h213v-824q0 -147 -31 -265t-94.5 -201t-159.5 -128t-227 -45q-129 0 -225.5 45t-160 128t-94 201t-30.5 265zM467 1636v109l330 190v-170z" />
<glyph unicode="&#xdb;" horiz-adv-x="1263" d="M121 610v824h213v-732q0 -104 11 -199t43 -168t90.5 -117t152.5 -44t152.5 44t91 117t44 168t11.5 199v732h213v-824q0 -147 -31 -265t-94.5 -201t-159.5 -128t-227 -45q-129 0 -225.5 45t-160 128t-94 201t-30.5 265zM373 1647v100l258 207l260 -207v-100l-260 159z" />
<glyph unicode="&#xdc;" horiz-adv-x="1263" d="M121 610v824h213v-732q0 -104 11 -199t43 -168t90.5 -117t152.5 -44t152.5 44t91 117t44 168t11.5 199v732h213v-824q0 -147 -31 -265t-94.5 -201t-159.5 -128t-227 -45q-129 0 -225.5 45t-160 128t-94 201t-30.5 265zM414 1649v209h159v-209h-159zM690 1649v209h160 v-209h-160z" />
<glyph unicode="&#xdd;" horiz-adv-x="1042" d="M-14 1434h223l307 -586l305 586h226l-424 -781v-653h-213v653zM356 1636v109l330 190v-170z" />
<glyph unicode="&#xde;" horiz-adv-x="1044" d="M141 0v1434h213v-244h148q119 0 212 -15.5t157.5 -63.5t99.5 -136t35 -234q0 -145 -41 -240t-103.5 -151.5t-136.5 -79t-137 -22.5h-234v-248h-213zM354 446h203q123 0 178.5 72t55.5 217q0 72 -11.5 122t-40 83t-77 47t-121.5 14h-187v-555z" />
<glyph unicode="&#xdf;" horiz-adv-x="999" d="M27 844l20 166h111v155q0 88 28.5 157t77.5 117t112.5 72.5t133.5 24.5q63 0 124.5 -19.5t110 -61.5t78 -109.5t29.5 -161.5q0 -90 -22.5 -158t-48 -119t-48 -86t-22.5 -55q0 -27 38.5 -63.5t85 -91t85 -130t38.5 -180.5q0 -88 -31.5 -149.5t-86 -99.5t-125 -55 t-146.5 -17q-53 0 -100 8v172q68 0 121 2t88 15t53.5 42t18.5 82q0 84 -40 146.5t-89.5 113.5t-89 96t-39.5 95q0 39 25.5 80.5t56 92t56 112t25.5 139.5q0 51 -12 85.5t-33.5 56t-48 30t-53.5 8.5q-72 0 -109 -51.5t-37 -174.5v-1409h-204v1123h-131z" />
<glyph unicode="&#xe0;" horiz-adv-x="876" d="M41 276q0 106 53 176t130 110t163 56.5t154 18.5q-2 61 -12.5 102t-30 64.5t-50 33t-73.5 9.5q-57 0 -112.5 -17.5t-125.5 -66.5l-20 168q74 47 151.5 73.5t161.5 26.5q76 0 135.5 -23.5t99.5 -78t61.5 -142.5t21.5 -215v-229q0 -111 14 -153t65 -42h27l-20 -167h-64 q-86 0 -132 35.5t-71 101.5q-47 -63 -117.5 -100t-150.5 -37q-55 0 -102 21.5t-82 60t-54.5 93t-19.5 121.5zM254 287q0 -76 29.5 -110t91.5 -34q39 0 85 31t81 84v238q-57 -4 -109.5 -17.5t-91.5 -39t-62.5 -63.5t-23.5 -89zM272 1341v170l330 -190v-109z" />
<glyph unicode="&#xe1;" horiz-adv-x="876" d="M41 276q0 106 53 176t130 110t163 56.5t154 18.5q-2 61 -12.5 102t-30 64.5t-50 33t-73.5 9.5q-57 0 -112.5 -17.5t-125.5 -66.5l-20 168q74 47 151.5 73.5t161.5 26.5q76 0 135.5 -23.5t99.5 -78t61.5 -142.5t21.5 -215v-229q0 -111 14 -153t65 -42h27l-20 -167h-64 q-86 0 -132 35.5t-71 101.5q-47 -63 -117.5 -100t-150.5 -37q-55 0 -102 21.5t-82 60t-54.5 93t-19.5 121.5zM254 287q0 -76 29.5 -110t91.5 -34q39 0 85 31t81 84v238q-57 -4 -109.5 -17.5t-91.5 -39t-62.5 -63.5t-23.5 -89zM272 1212v109l330 190v-170z" />
<glyph unicode="&#xe2;" horiz-adv-x="876" d="M41 276q0 106 53 176t130 110t163 56.5t154 18.5q-2 61 -12.5 102t-30 64.5t-50 33t-73.5 9.5q-57 0 -112.5 -17.5t-125.5 -66.5l-20 168q74 47 151.5 73.5t161.5 26.5q76 0 135.5 -23.5t99.5 -78t61.5 -142.5t21.5 -215v-229q0 -111 14 -153t65 -42h27l-20 -167h-64 q-86 0 -132 35.5t-71 101.5q-47 -63 -117.5 -100t-150.5 -37q-55 0 -102 21.5t-82 60t-54.5 93t-19.5 121.5zM180 1223v100l258 207l260 -207v-100l-260 159zM254 287q0 -76 29.5 -110t91.5 -34q39 0 85 31t81 84v238q-57 -4 -109.5 -17.5t-91.5 -39t-62.5 -63.5t-23.5 -89z " />
<glyph unicode="&#xe3;" horiz-adv-x="876" d="M41 276q0 106 53 176t130 110t163 56.5t154 18.5q-2 61 -12.5 102t-30 64.5t-50 33t-73.5 9.5q-57 0 -112.5 -17.5t-125.5 -66.5l-20 168q74 47 151.5 73.5t161.5 26.5q76 0 135.5 -23.5t99.5 -78t61.5 -142.5t21.5 -215v-229q0 -111 14 -153t65 -42h27l-20 -167h-64 q-86 0 -132 35.5t-71 101.5q-47 -63 -117.5 -100t-150.5 -37q-55 0 -102 21.5t-82 60t-54.5 93t-19.5 121.5zM110 1251q6 51 27.5 88t51.5 60.5t64.5 35t67.5 11.5q37 0 66.5 -15.5t54.5 -33t48.5 -32.5t47.5 -15q41 0 69 29.5t38 72.5l114 -27q-12 -86 -64 -142t-138 -56 q-33 0 -63.5 15t-58.5 33.5t-53.5 34t-50.5 15.5q-41 0 -63.5 -28.5t-30.5 -69.5zM254 287q0 -76 29.5 -110t91.5 -34q39 0 85 31t81 84v238q-57 -4 -109.5 -17.5t-91.5 -39t-62.5 -63.5t-23.5 -89z" />
<glyph unicode="&#xe4;" horiz-adv-x="876" d="M41 276q0 106 53 176t130 110t163 56.5t154 18.5q-2 61 -12.5 102t-30 64.5t-50 33t-73.5 9.5q-57 0 -112.5 -17.5t-125.5 -66.5l-20 168q74 47 151.5 73.5t161.5 26.5q76 0 135.5 -23.5t99.5 -78t61.5 -142.5t21.5 -215v-229q0 -111 14 -153t65 -42h27l-20 -167h-64 q-86 0 -132 35.5t-71 101.5q-47 -63 -117.5 -100t-150.5 -37q-55 0 -102 21.5t-82 60t-54.5 93t-19.5 121.5zM222 1225v209h159v-209h-159zM254 287q0 -76 29.5 -110t91.5 -34q39 0 85 31t81 84v238q-57 -4 -109.5 -17.5t-91.5 -39t-62.5 -63.5t-23.5 -89zM498 1225v209h160 v-209h-160z" />
<glyph unicode="&#xe5;" horiz-adv-x="876" d="M41 276q0 106 53 176t130 110t163 56.5t154 18.5q-2 61 -12.5 102t-30 64.5t-50 33t-73.5 9.5q-57 0 -112.5 -17.5t-125.5 -66.5l-20 168q74 47 151.5 73.5t161.5 26.5q76 0 135.5 -23.5t99.5 -78t61.5 -142.5t21.5 -215v-229q0 -111 14 -153t65 -42h27l-20 -167h-64 q-86 0 -132 35.5t-71 101.5q-47 -63 -117.5 -100t-150.5 -37q-55 0 -102 21.5t-82 60t-54.5 93t-19.5 121.5zM254 287q0 -76 29.5 -110t91.5 -34q39 0 85 31t81 84v238q-57 -4 -109.5 -17.5t-91.5 -39t-62.5 -63.5t-23.5 -89zM256 1362q0 37 12 69.5t35.5 58.5t57.5 41 t77 15t78 -15t58.5 -41t35.5 -58.5t12 -69.5q0 -72 -48 -127t-136 -55q-86 0 -134 55t-48 127zM356 1362q0 -51 23.5 -80t58.5 -29t59.5 29t24.5 80q0 47 -24.5 77.5t-59.5 30.5t-58.5 -30.5t-23.5 -77.5z" />
<glyph unicode="&#xe6;" horiz-adv-x="1398" d="M35 248q0 117 53 190.5t130 115.5t165 58.5t156 20.5q-6 115 -43 164t-129 49q-59 0 -112.5 -15.5t-121.5 -50.5l-18 166q158 84 307 84q45 0 88 -9t78 -33.5t61.5 -69t42.5 -113.5q25 115 113 170t199 55q76 0 139 -28.5t109 -82t72 -132t26 -177.5q0 -35 -4.5 -65.5 t-8.5 -59.5h-567q16 -174 90 -256t172 -82q61 0 132 23t130 57l15 -168q-53 -33 -126 -56t-165 -23q-131 0 -220 53t-132 164q-55 -109 -140.5 -167.5t-208.5 -58.5q-137 0 -209.5 75t-72.5 202zM248 266q0 -66 32.5 -95.5t79.5 -29.5q33 0 68 14.5t62.5 47.5t46 83 t18.5 122v39.5t-2 44.5q-49 0 -102.5 -12.5t-98.5 -39t-74.5 -69.5t-29.5 -105zM778 629h385q0 104 -38 162.5t-130 58.5q-84 0 -142 -55.5t-75 -165.5z" />
<glyph unicode="&#xe7;" horiz-adv-x="788" d="M49 506q0 109 26.5 205t81 166.5t134.5 111.5t186 41q104 0 163.5 -19.5t100.5 -45.5l-20 -185q-53 35 -107.5 52.5t-117.5 17.5q-117 0 -177.5 -92t-60.5 -252q0 -158 60.5 -253t177.5 -95q63 0 117.5 17.5t107.5 51.5l20 -172q-41 -29 -99.5 -52t-164.5 -23t-186 41.5 t-134.5 114.5t-81 168t-26.5 202zM301 -395l121 272l168 14l-170 -272z" />
<glyph unicode="&#xe8;" horiz-adv-x="907" d="M51 510q0 106 29 200.5t82 165t132 112.5t179 42q82 0 152.5 -29.5t123 -85t81 -136.5t28.5 -181q0 -51 -12 -113h-582q8 -92 35 -154.5t64.5 -100t84 -54t93.5 -16.5q61 0 136 17.5t130 49.5l12 -170q-51 -29 -124.5 -53t-168.5 -24q-119 0 -208 41.5t-148 114.5 t-89 169t-30 205zM272 629h377q0 94 -38 157.5t-132 63.5q-90 0 -140 -59.5t-67 -161.5zM288 1341v170l330 -190v-109z" />
<glyph unicode="&#xe9;" horiz-adv-x="907" d="M51 510q0 106 29 200.5t82 165t132 112.5t179 42q82 0 152.5 -29.5t123 -85t81 -136.5t28.5 -181q0 -51 -12 -113h-582q8 -92 35 -154.5t64.5 -100t84 -54t93.5 -16.5q61 0 136 17.5t130 49.5l12 -170q-51 -29 -124.5 -53t-168.5 -24q-119 0 -208 41.5t-148 114.5 t-89 169t-30 205zM272 629h377q0 94 -38 157.5t-132 63.5q-90 0 -140 -59.5t-67 -161.5zM288 1212v109l330 190v-170z" />
<glyph unicode="&#xea;" horiz-adv-x="907" d="M51 510q0 106 29 200.5t82 165t132 112.5t179 42q82 0 152.5 -29.5t123 -85t81 -136.5t28.5 -181q0 -51 -12 -113h-582q8 -92 35 -154.5t64.5 -100t84 -54t93.5 -16.5q61 0 136 17.5t130 49.5l12 -170q-51 -29 -124.5 -53t-168.5 -24q-119 0 -208 41.5t-148 114.5 t-89 169t-30 205zM194 1223v100l258 207l260 -207v-100l-260 159zM272 629h377q0 94 -38 157.5t-132 63.5q-90 0 -140 -59.5t-67 -161.5z" />
<glyph unicode="&#xeb;" horiz-adv-x="907" d="M51 510q0 106 29 200.5t82 165t132 112.5t179 42q82 0 152.5 -29.5t123 -85t81 -136.5t28.5 -181q0 -51 -12 -113h-582q8 -92 35 -154.5t64.5 -100t84 -54t93.5 -16.5q61 0 136 17.5t130 49.5l12 -170q-51 -29 -124.5 -53t-168.5 -24q-119 0 -208 41.5t-148 114.5 t-89 169t-30 205zM234 1225v209h159v-209h-159zM272 629h377q0 94 -38 157.5t-132 63.5q-90 0 -140 -59.5t-67 -161.5zM510 1225v209h160v-209h-160z" />
<glyph unicode="&#xec;" horiz-adv-x="421" d="M49 1341v170l330 -190v-109zM109 0v1010h204v-1010h-204z" />
<glyph unicode="&#xed;" horiz-adv-x="421" d="M49 1212v109l330 190v-170zM109 0v1010h204v-1010h-204z" />
<glyph unicode="&#xee;" horiz-adv-x="421" d="M-45 1223v100l258 207l260 -207v-100l-260 159zM109 0v1010h204v-1010h-204z" />
<glyph unicode="&#xef;" horiz-adv-x="421" d="M-4 1225v209h159v-209h-159zM109 0v1010h204v-1010h-204zM272 1225v209h160v-209h-160z" />
<glyph unicode="&#xf0;" horiz-adv-x="901" d="M35 414q0 80 23.5 161.5t69.5 147t116.5 107.5t165.5 42q78 0 128 -32.5t85 -67.5q-4 39 -15.5 90t-28 103.5t-38 96.5t-45.5 68q-117 -104 -244 -122l-66 125q47 6 101.5 28.5t113.5 73.5q-47 51 -101 74.5t-107 31.5l67 95q61 0 128 -27t130 -84q31 37 55.5 66.5 t42.5 62.5l111 -27q-29 -47 -57.5 -89t-65.5 -89q51 -61 94 -142t74 -175t48.5 -196.5t17.5 -209.5q0 -164 -38 -270t-97.5 -168.5t-131 -87.5t-139.5 -25q-84 0 -156.5 33t-126 91.5t-84 138t-30.5 176.5zM236 436q0 -55 12 -106t37.5 -89t63.5 -60.5t87 -22.5 q39 0 74 18.5t61.5 53t43 85t16.5 111.5q0 121 -50.5 193.5t-148.5 72.5q-49 0 -86 -21.5t-61.5 -57t-36.5 -82t-12 -95.5z" />
<glyph unicode="&#xf1;" horiz-adv-x="972" d="M102 0v1010h187l6 -90q47 61 103.5 85.5t111.5 24.5q100 0 171 -33.5t116 -96t64.5 -150.5t19.5 -197v-553h-205v553q0 154 -44 225.5t-145 71.5q-121 0 -180 -117v-733h-205zM159 1251q6 51 27.5 88t51.5 60.5t64.5 35t67.5 11.5q37 0 66.5 -15.5t54.5 -33t48.5 -32.5 t47.5 -15q41 0 69 29.5t38 72.5l114 -27q-12 -86 -64 -142t-138 -56q-33 0 -63.5 15t-58.5 33.5t-53.5 34t-50.5 15.5q-41 0 -63.5 -28.5t-30.5 -69.5z" />
<glyph unicode="&#xf2;" horiz-adv-x="980" d="M49 504q0 109 30 205t86 167.5t139 112.5t188 41q104 0 186 -41t138 -112.5t86 -168t30 -204.5q0 -109 -30 -204t-86 -167t-138 -112.5t-186 -40.5t-187.5 40.5t-139.5 112.5t-86 167t-30 204zM258 504q0 -160 60.5 -252t173.5 -92q111 0 171 92t60 252q0 162 -60 254 t-171 92q-113 0 -173.5 -92t-60.5 -254zM325 1341v170l330 -190v-109z" />
<glyph unicode="&#xf3;" horiz-adv-x="980" d="M49 504q0 109 30 205t86 167.5t139 112.5t188 41q104 0 186 -41t138 -112.5t86 -168t30 -204.5q0 -109 -30 -204t-86 -167t-138 -112.5t-186 -40.5t-187.5 40.5t-139.5 112.5t-86 167t-30 204zM258 504q0 -160 60.5 -252t173.5 -92q111 0 171 92t60 252q0 162 -60 254 t-171 92q-113 0 -173.5 -92t-60.5 -254zM325 1212v109l330 190v-170z" />
<glyph unicode="&#xf4;" horiz-adv-x="980" d="M49 504q0 109 30 205t86 167.5t139 112.5t188 41q104 0 186 -41t138 -112.5t86 -168t30 -204.5q0 -109 -30 -204t-86 -167t-138 -112.5t-186 -40.5t-187.5 40.5t-139.5 112.5t-86 167t-30 204zM231 1223v100l258 207l260 -207v-100l-260 159zM258 504q0 -160 60.5 -252 t173.5 -92q111 0 171 92t60 252q0 162 -60 254t-171 92q-113 0 -173.5 -92t-60.5 -254z" />
<glyph unicode="&#xf5;" horiz-adv-x="980" d="M49 504q0 109 30 205t86 167.5t139 112.5t188 41q104 0 186 -41t138 -112.5t86 -168t30 -204.5q0 -109 -30 -204t-86 -167t-138 -112.5t-186 -40.5t-187.5 40.5t-139.5 112.5t-86 167t-30 204zM164 1251q6 51 27.5 88t51.5 60.5t64.5 35t67.5 11.5q37 0 66.5 -15.5 t54.5 -33t48.5 -32.5t47.5 -15q41 0 69 29.5t38 72.5l114 -27q-12 -86 -64 -142t-138 -56q-33 0 -63.5 15t-58.5 33.5t-53.5 34t-50.5 15.5q-41 0 -63.5 -28.5t-30.5 -69.5zM258 504q0 -160 60.5 -252t173.5 -92q111 0 171 92t60 252q0 162 -60 254t-171 92 q-113 0 -173.5 -92t-60.5 -254z" />
<glyph unicode="&#xf6;" horiz-adv-x="980" d="M49 504q0 109 30 205t86 167.5t139 112.5t188 41q104 0 186 -41t138 -112.5t86 -168t30 -204.5q0 -109 -30 -204t-86 -167t-138 -112.5t-186 -40.5t-187.5 40.5t-139.5 112.5t-86 167t-30 204zM258 504q0 -160 60.5 -252t173.5 -92q111 0 171 92t60 252q0 162 -60 254 t-171 92q-113 0 -173.5 -92t-60.5 -254zM273 1225v209h159v-209h-159zM549 1225v209h160v-209h-160z" />
<glyph unicode="&#xf7;" horiz-adv-x="966" d="M78 492v165h811v-165h-811zM375 41v217h203v-217h-203zM375 877v217h203v-217h-203z" />
<glyph unicode="&#xf8;" horiz-adv-x="989" d="M49 510q0 106 30 202.5t87 169t140 114.5t188 42q68 0 124 -22l29 78h180l-65 -142q88 -84 133 -196.5t45 -247.5q0 -109 -29.5 -204t-87 -166.5t-140.5 -113.5t-187 -42q-68 0 -131 20l-29 -74h-172l61 142q-86 80 -131 193.5t-45 246.5zM260 508q0 -63 12.5 -126 t36.5 -142l234 620q-16 8 -27.5 10t-21.5 2q-55 0 -98.5 -27.5t-74 -76.5t-46 -115.5t-15.5 -144.5zM440 158q18 -6 30.5 -8.5t25.5 -2.5q55 0 99 28t73.5 77t45 114.5t15.5 141.5q0 33 -3 73t-9 77.5t-16.5 69.5t-22.5 52z" />
<glyph unicode="&#xf9;" horiz-adv-x="972" d="M94 438v572h205v-539q0 -154 42 -232.5t138 -78.5q109 0 174 104v746h203v-1010h-188l-6 94q-82 -115 -207 -114q-195 0 -278 117.5t-83 340.5zM321 1341v170l330 -190v-109z" />
<glyph unicode="&#xfa;" horiz-adv-x="972" d="M94 438v572h205v-539q0 -154 42 -232.5t138 -78.5q109 0 174 104v746h203v-1010h-188l-6 94q-82 -115 -207 -114q-195 0 -278 117.5t-83 340.5zM321 1212v109l330 190v-170z" />
<glyph unicode="&#xfb;" horiz-adv-x="972" d="M94 438v572h205v-539q0 -154 42 -232.5t138 -78.5q109 0 174 104v746h203v-1010h-188l-6 94q-82 -115 -207 -114q-195 0 -278 117.5t-83 340.5zM227 1223v100l258 207l260 -207v-100l-260 159z" />
<glyph unicode="&#xfc;" horiz-adv-x="972" d="M94 438v572h205v-539q0 -154 42 -232.5t138 -78.5q109 0 174 104v746h203v-1010h-188l-6 94q-82 -115 -207 -114q-195 0 -278 117.5t-83 340.5zM269 1225v209h159v-209h-159zM545 1225v209h160v-209h-160z" />
<glyph unicode="&#xfd;" horiz-adv-x="946" d="M10 1010h228l235 -715l232 715h229l-547 -1506h-209l197 549zM309 1212v109l330 190v-170z" />
<glyph unicode="&#xfe;" horiz-adv-x="1007" d="M102 -494v2030h205v-612q47 53 99.5 79.5t123.5 26.5q104 0 184.5 -42t134.5 -114.5t81.5 -168t27.5 -201.5t-27.5 -201.5t-81.5 -167.5t-135.5 -113.5t-185.5 -41.5q-74 0 -126 28.5t-95 83.5v-586h-205zM295 504q0 -76 12 -140.5t39 -112.5t69 -76t99 -28t101 27t75 75 t46.5 112.5t15.5 142.5q0 156 -61.5 251t-176.5 95q-57 0 -99 -25.5t-69 -71.5t-39 -109.5t-12 -139.5z" />
<glyph unicode="&#xff;" horiz-adv-x="946" d="M10 1010h228l235 -715l232 715h229l-547 -1506h-209l197 549zM254 1225v209h159v-209h-159zM530 1225v209h160v-209h-160z" />
<glyph unicode="&#x152;" horiz-adv-x="1871" d="M61 717q0 170 45.5 307t126 234.5t191.5 150.5t242 53q109 0 205 -41t184 -137v148h741v-201h-526v-381h405v-203h-405v-444h542v-203h-757v150q-88 -96 -184.5 -137.5t-204.5 -41.5q-131 0 -242 53.5t-191.5 150.5t-126 234.5t-45.5 307.5zM291 717q0 -117 23.5 -216.5 t70.5 -172t116.5 -113.5t164.5 -41q94 0 163.5 41t116.5 113.5t70.5 172t23.5 216.5t-23.5 216t-70.5 172t-116.5 114t-163.5 41t-164 -41t-117 -114t-70.5 -172t-23.5 -216z" />
<glyph unicode="&#x153;" horiz-adv-x="1574" d="M49 512q0 106 30 201.5t87 165t140 110.5t188 41q104 0 191 -48t140 -144q53 96 136 144t184 48q82 0 152.5 -29.5t121.5 -85t80 -134.5t29 -179q0 -31 -3 -58.5t-7 -58.5h-578q6 -104 32.5 -169.5t63.5 -102.5t81 -51.5t87 -14.5q66 0 142.5 23t130.5 57l12 -178 q-51 -29 -124 -49t-165 -20q-135 0 -225 51t-146 149q-53 -98 -140 -149t-197 -51q-104 0 -187.5 41.5t-139.5 114.5t-86 169t-30 207zM258 504q0 -160 60.5 -252t175.5 -92q55 0 99 26.5t72.5 72.5t44 110.5t15.5 138.5q0 152 -60 247t-171 95q-115 0 -175.5 -92 t-60.5 -254zM944 629h377q-2 98 -42 159.5t-130 61.5q-172 0 -205 -221z" />
<glyph unicode="&#x178;" horiz-adv-x="1042" d="M-14 1434h223l307 -586l305 586h226l-424 -781v-653h-213v653zM304 1649v209h159v-209h-159zM580 1649v209h160v-209h-160z" />
<glyph unicode="&#x2c6;" horiz-adv-x="784" d="M133 1223v100l258 207l260 -207v-100l-260 159z" />
<glyph unicode="&#x2dc;" horiz-adv-x="927" d="M139 1251q6 51 27.5 88t51.5 60.5t64.5 35t67.5 11.5q37 0 66.5 -15.5t54.5 -33t48.5 -32.5t47.5 -15q41 0 69 29.5t38 72.5l114 -27q-12 -86 -64 -142t-138 -56q-33 0 -63.5 15t-58.5 33.5t-53.5 34t-50.5 15.5q-41 0 -63.5 -28.5t-30.5 -69.5z" />
<glyph unicode="&#x2000;" horiz-adv-x="985" />
<glyph unicode="&#x2001;" horiz-adv-x="1970" />
<glyph unicode="&#x2002;" horiz-adv-x="985" />
<glyph unicode="&#x2003;" horiz-adv-x="1970" />
<glyph unicode="&#x2004;" horiz-adv-x="656" />
<glyph unicode="&#x2005;" horiz-adv-x="492" />
<glyph unicode="&#x2006;" horiz-adv-x="328" />
<glyph unicode="&#x2007;" horiz-adv-x="328" />
<glyph unicode="&#x2008;" horiz-adv-x="246" />
<glyph unicode="&#x2009;" horiz-adv-x="394" />
<glyph unicode="&#x200a;" horiz-adv-x="109" />
<glyph unicode="&#x2010;" horiz-adv-x="718" d="M86 481v183h547v-183h-547z" />
<glyph unicode="&#x2011;" horiz-adv-x="718" d="M86 481v183h547v-183h-547z" />
<glyph unicode="&#x2012;" horiz-adv-x="718" d="M86 481v183h547v-183h-547z" />
<glyph unicode="&#x2013;" horiz-adv-x="856" d="M86 481v183h684v-183h-684z" />
<glyph unicode="&#x2014;" horiz-adv-x="1017" d="M86 481v183h846v-183h-846z" />
<glyph unicode="&#x2018;" horiz-adv-x="415" d="M104 1106v207l164 223l43 -27l-57 -178l59 -18v-207h-209z" />
<glyph unicode="&#x2019;" horiz-adv-x="415" d="M102 1133l60 178l-58 18v207h207v-207l-164 -223z" />
<glyph unicode="&#x201a;" horiz-adv-x="415" d="M102 -197l60 179l-58 18v207h207v-207l-164 -223z" />
<glyph unicode="&#x201c;" horiz-adv-x="788" d="M104 1106v207l164 223l43 -27l-57 -178l59 -18v-207h-209zM475 1106v207l162 223l45 -27l-59 -178l59 -18v-207h-207z" />
<glyph unicode="&#x201d;" horiz-adv-x="788" d="M102 1133l60 178l-58 18v207h207v-207l-164 -223zM473 1133l59 178l-59 18v207h209v-207l-166 -223z" />
<glyph unicode="&#x201e;" horiz-adv-x="800" d="M102 -197l60 179l-58 18v207h207v-207l-164 -223zM508 0v207h209v-207l-164 -223l-45 26l59 179z" />
<glyph unicode="&#x2022;" horiz-adv-x="522" d="M70 569q0 45 15 86t41 72t60.5 48.5t75.5 17.5q39 0 74 -17.5t60.5 -48.5t41 -72t15.5 -86q0 -47 -15.5 -87t-41 -70.5t-60.5 -48t-74 -17.5q-41 0 -75.5 17.5t-60.5 48t-41 70.5t-15 87z" />
<glyph unicode="&#x2026;" horiz-adv-x="1247" d="M106 0v207h205v-207h-205zM522 0v207h205v-207h-205zM938 0v207h205v-207h-205z" />
<glyph unicode="&#x202f;" horiz-adv-x="394" />
<glyph unicode="&#x2039;" horiz-adv-x="612" d="M18 582l271 422h246l-273 -422l273 -422h-246z" />
<glyph unicode="&#x203a;" horiz-adv-x="612" d="M78 160l270 422l-270 422h244l272 -422l-272 -422h-244z" />
<glyph unicode="&#x205f;" horiz-adv-x="492" />
<glyph unicode="&#x20ac;" horiz-adv-x="1239" d="M61 436l52 154h163q-4 37 -5 73.5t-1 84.5h-161l51 153h131q25 117 74 209t119.5 156.5t158.5 98.5t188 34q86 0 168 -17.5t148 -54.5l-23 -211q-72 35 -140.5 56.5t-152.5 21.5q-129 0 -204.5 -77t-110.5 -216h447l-56 -153h-411q0 -35 1 -85.5t5 -72.5h426l-49 -154 h-330q84 -197 282 -196q84 0 153 21.5t140 55.5l23 -211q-66 -37 -148 -54t-168 -17q-180 0 -316 104.5t-202 296.5h-252z" />
<glyph unicode="&#x2122;" horiz-adv-x="1304" d="M63 1311v123h486l-17 -123h-167v-621h-127v621h-175zM547 690l84 744h80l166 -344l163 344h82l86 -744h-135l-47 510l-141 -305h-17l-139 305l-49 -510h-133z" />
<glyph unicode="&#x25fc;" horiz-adv-x="1013" d="M0 0v1014h1014v-1014h-1014z" />
</font>
</defs>
</svg>
